<?xml version="1.0" encoding="utf-8"?>
<!-- Generator: Adobe Illustrator 24.0.2, SVG Export Plug-In . SVG Version: 6.00 Build 0)  -->
<svg version="1.1" id="Layer_1" xmlns="http://www.w3.org/2000/svg" xmlns:xlink="http://www.w3.org/1999/xlink" x="0px" y="0px"
	 viewBox="0 0 256 256" style="enable-background:new 0 0 256 256;" xml:space="preserve">
<style type="text/css">
	.st0{fill:#41228E;}
</style>
<path class="st0" d="M218.6,205.6c-3.3,0-6.3-2.1-7.4-5.3c-1.3-4.1,0.9-8.4,5-9.8c14.7-4.8,24.3-17.8,24.3-32.9
	c0-19.2-15.6-34.9-34.9-34.9c-1.3,0-2.8,0.1-4.5,0.3l-7.6,1l-1.1-7.6c-4.7-32.5-32.9-56.9-65.8-56.9c-27.1,0-51.3,16.3-61.6,41.4
	l-1.9,4.7l-5.1,0.1c-23.5,0.4-42.6,19.9-42.6,43.3c0,17.1,9.9,32.7,25.3,39.8c3.9,1.8,5.6,6.4,3.8,10.3c-1.8,3.9-6.4,5.6-10.3,3.8
	C13.5,193.4,0,172.2,0,149.1c0-30.2,23.2-55.4,52.7-58.5C66.3,62.1,94.8,44,126.7,44c38.1,0,71.2,26.7,79.8,63.2
	c27.4,0.4,49.5,22.9,49.5,50.4c0,21.7-14.1,40.8-35,47.7C220.2,205.5,219.4,205.6,218.6,205.6z"/>
<path class="st0" d="M100,209C100,209,100,209,100,209C100,209,100,209,100,209L100,209L100,209L100,209C100,209,100,209,100,209
	L100,209L100,209C100,209,100,209,100,209L100,209L100,209L100,209C100,209,100,209,100,209C100,209,100,209,100,209L100,209
	L100,209L100,209L100,209C100,208.9,100,208.9,100,209C100,208.9,100,208.9,100,209L100,209C100,208.9,100,208.9,100,209L100,209
	C100,208.9,99.9,208.9,100,209C99.9,208.9,99.9,208.9,100,209C99.9,208.9,99.9,208.9,100,209L100,209C99.9,208.9,99.9,208.9,100,209
	C99.9,208.9,99.9,208.9,100,209L100,209l-0.1-0.1c0,0,0,0,0,0h0c-0.1,0-0.2-0.1-0.4-0.1h0h0h0c0,0,0,0,0,0h0h0l0,0h0h0h0h0h0h0h0h0
	h0h0h0h0h0h0h0h0c-3.4,0-6.1-2.7-6.1-6.1v-68.1h5.2h0c0.8,0,1.3-0.6,1.3-1.3c0-0.5-0.3-1-0.8-1.2l-25.1-17.3c-0.4-0.3-1-0.3-1.5,0
	l-25.2,17.4c-0.5,0.3-0.7,0.9-0.5,1.5c0.2,0.5,0.7,0.9,1.3,0.9h5.2l0,68.1c0,4.7,3.8,8.6,8.6,8.7c0.1,0,0.1,0,0.2,0h37.4h0
	c0.3,0,0.7-0.1,0.9-0.4c0,0,0,0,0,0c0,0,0,0,0,0c0,0,0,0,0,0l0,0l0,0l0,0l0,0l0,0l0,0c0,0,0,0,0,0c0,0,0,0,0,0l0,0c0,0,0,0,0,0
	c0.2-0.2,0.4-0.6,0.4-0.9v0v0v0v0v0v0v0v0C100.8,209.6,100.5,209.2,100,209z"/>
<path class="st0" d="M154.1,209C154.1,209,154.1,209,154.1,209C154.1,209,154.1,209,154.1,209L154.1,209L154.1,209L154.1,209
	L154.1,209L154.1,209L154.1,209C154.1,209,154.1,209,154.1,209L154.1,209L154.1,209C154.1,209,154.1,209,154.1,209
	C154.1,209,154.1,209,154.1,209L154.1,209L154.1,209L154.1,209L154.1,209L154.1,209C154.1,208.9,154.1,208.9,154.1,209
	C154.1,208.9,154.1,208.9,154.1,209L154.1,209L154.1,209C154.1,208.9,154.1,208.9,154.1,209C154.1,208.9,154.1,208.9,154.1,209
	C154,208.9,154,208.9,154.1,209C154,208.9,154,208.9,154.1,209C154,208.9,154,208.9,154.1,209C154,208.9,154,208.9,154.1,209
	C154,208.9,154,208.9,154.1,209c-0.1-0.1-0.1-0.1-0.1-0.1c0,0,0,0,0,0l0,0h0c-0.1,0-0.2-0.1-0.4-0.1h0h0h0h0h0h0l0,0h0h0h0h0h0h0h0
	h0h0h0h0h0h0h0h0h0c-3.3,0-6.1-2.7-6.1-6.1v-52.9h5.2c0,0,0,0,0.1,0c0.7,0,1.3-0.6,1.3-1.3c0-0.5-0.3-1-0.8-1.2l-25.1-17.3
	c-0.4-0.3-1-0.3-1.5,0l-25.2,17.4c-0.5,0.3-0.7,0.9-0.5,1.5c0.2,0.5,0.7,0.9,1.3,0.9h5.2l0,52.9c0,4.7,3.8,8.6,8.6,8.7
	c0.1,0,0.1,0,0.2,0h37.4h0c0.3,0,0.7-0.1,0.9-0.4c0,0,0,0,0,0c0,0,0,0,0,0c0,0,0,0,0,0l0,0l0,0l0,0c0,0,0,0,0,0l0,0c0,0,0,0,0,0
	c0,0,0,0,0,0c0,0,0,0,0,0c0,0,0,0,0,0c0,0,0,0,0,0c0.2-0.2,0.4-0.6,0.4-0.9v0v0v0v0v0v0v0v0C154.9,209.6,154.6,209.2,154.1,209z"/>
<path class="st0" d="M208.4,209L208.4,209C208.4,209,208.4,209,208.4,209L208.4,209L208.4,209L208.4,209
	C208.4,209,208.4,209,208.4,209L208.4,209L208.4,209L208.4,209C208.4,209,208.3,209,208.4,209L208.4,209L208.4,209
	C208.3,209,208.3,209,208.4,209C208.3,209,208.3,209,208.4,209L208.4,209L208.4,209L208.4,209L208.4,209
	C208.3,208.9,208.3,208.9,208.4,209C208.3,208.9,208.3,208.9,208.4,209L208.4,209C208.3,208.9,208.3,208.9,208.4,209
	C208.3,208.9,208.3,208.9,208.4,209C208.3,208.9,208.3,208.9,208.4,209C208.3,208.9,208.3,208.9,208.4,209L208.4,209
	C208.3,208.9,208.3,208.9,208.4,209L208.4,209C208.3,208.9,208.3,208.9,208.4,209c-0.1-0.1-0.1-0.1-0.1-0.1c0,0,0,0,0,0c0,0,0,0,0,0
	h0c-0.1,0-0.2-0.1-0.4-0.1h0h0h0h0h0h0c0,0,0,0,0,0h0h0h0h0h0h0h0c0,0,0,0,0,0h0h0h0h0h0h0h0h0c-3.3,0-6.1-2.7-6.1-6.1v-37.6h5.2h0
	c0.7,0,1.3-0.6,1.3-1.3c0-0.5-0.3-1-0.8-1.2l-25.1-17.3c-0.4-0.3-1-0.3-1.5,0l-25.2,17.4c-0.5,0.3-0.7,0.9-0.5,1.5
	c0.2,0.5,0.7,0.9,1.3,0.9h5.2l0,37.6c0,4.7,3.8,8.6,8.6,8.7c0.1,0,0.1,0,0.2,0h37.4h0c0.3,0,0.7-0.1,0.9-0.4l0,0c0,0,0,0,0,0
	c0,0,0,0,0,0l0,0l0,0l0,0l0,0l0,0l0,0c0,0,0,0,0,0c0,0,0,0,0,0l0,0c0,0,0,0,0,0c0.2-0.2,0.4-0.6,0.4-0.9v0v0v0v0v0v0v0v0
	C209.1,209.6,208.8,209.2,208.4,209z"/>
</svg>
