<?xml version="1.0" encoding="utf-8"?>
<!-- Generator: Adobe Illustrator 24.0.2, SVG Export Plug-In . SVG Version: 6.00 Build 0)  -->
<svg version="1.1" id="Layer_1" xmlns="http://www.w3.org/2000/svg" xmlns:xlink="http://www.w3.org/1999/xlink" x="0px" y="0px"
	 viewBox="0 0 48 48" style="enable-background:new 0 0 48 48;" xml:space="preserve">
<style type="text/css">
	.st0{fill:#41228E;}
</style>
<g id="surface20552302">
	<path class="st0" d="M22,6v10.3C21.3,16,19.8,16,19.1,16c-5.6,0-10.7,2.6-10.7,10c0,8.8,7,10,11.6,10c1.8,0,6-0.2,8-0.8V6H22z
		 M32,6v6h6V6H32z M32,16v17.4c0,3-1.8,6.2-6,8l5.7,2.6c5.8-2,6.3-8.6,6.3-10.6V16H32z M19.9,21.1c0.6,0,1.4,0.1,2.1,0.3v9.4
		c-0.7,0.2-1.4,0.3-2.1,0.3c-2.6,0-5.2-0.8-5.2-5.1S17.3,21.1,19.9,21.1z"/>
</g>
</svg>
