<?xml version="1.0" encoding="utf-8"?>
<!-- Generator: Adobe Illustrator 24.0.2, SVG Export Plug-In . SVG Version: 6.00 Build 0)  -->
<svg version="1.1" id="Layer_1" xmlns="http://www.w3.org/2000/svg" xmlns:xlink="http://www.w3.org/1999/xlink" x="0px" y="0px"
	 viewBox="0 0 50 50" style="enable-background:new 0 0 50 50;" xml:space="preserve">
<style type="text/css">
	.st0{fill:#41228E;}
</style>
<g id="surface12350815">
	<path class="st0" d="M40,2H12C9.2,2,7,4.2,7,7v36c0,2.8,2.2,5,5,5h28c2.8,0,5-2.2,5-5V7C45,4.2,42.8,2,40,2z M16.6,40.9V31l5,5
		L16.6,40.9z M35.3,40.9h-4.8V23.5c0,0,1.1-4.2-14,1.7c0,0.1,0-16.2,0-16.2l4.9,0v10.4c0,0,13.8-5.5,13.8,4.1V40.9z M33.3,15.3h-5.2
		C30,13,31.7,9,31.7,9h5.4C37.1,9,36.2,11.6,33.3,15.3z"/>
</g>
</svg>
