<?xml version="1.0" encoding="utf-8"?>
<!-- Generator: Adobe Illustrator 24.0.2, SVG Export Plug-In . SVG Version: 6.00 Build 0)  -->
<svg version="1.1" id="Layer_1" xmlns="http://www.w3.org/2000/svg" xmlns:xlink="http://www.w3.org/1999/xlink" x="0px" y="0px"
	 viewBox="0 0 50 50" style="enable-background:new 0 0 50 50;" xml:space="preserve">
<style type="text/css">
	.st0{fill:#41228E;}
</style>
<g id="surface12306943">
	<path class="st0" d="M35.2,2.1c-1.5,0-2.8,0.3-4,0.6c2.1,0.9,3.4,2,4.1,2.5c1.6,1.4,2.5,2.8,4.1,5.1c0.3,0.5,0.8,1.2,1.1,2.3
		c0.3,1,0.3,1.8,0.3,2.6c0,1.1-0.1,2-0.2,2.9c-0.1,0.7-0.1,1-0.2,1.2c0,0.1,0,0.2-0.1,0.4c0,0.5,0,0.7,0.1,1.1
		c0,0.4,0.1,0.8,0.1,1.5c0.1,1.3,0.1,2.2-0.1,3.3V26c-0.2,0.9-0.4,1.8-0.9,2.6c0.1,0.2,0.2,0.3,0.3,0.5c0.5-0.7,0.9-1.4,1.3-2.2
		c1.2-2.2,1.9-4.1,2.4-5.5c0.9-2.6,1.4-4.5,1.7-5.9c0.7-3,0.8-4.4,0.5-6c0-0.5-0.2-1.4-0.7-2.3c-1.1-2-2.8-2.9-4-3.5
		C40.2,3.3,38.1,2.2,35.2,2.1z M13.5,2.5c-1.2,0-2.6,0.1-4.1,0.9c-0.5,0.2-2,0.9-3.2,2.5c-0.8,1-1.4,2.5-1.7,4.2
		c-0.3,1.5-0.4,3.3,0.2,6.7c0.4,2.4,0.8,4,1.6,7.3c0.1,0.4,0.7,2.2,2,6.2l0.1,0.2c0.2,0.7,0.8,2.2,2.1,3.7c0.9,1,1.7,1.6,2.4,1.6
		h0.2c1.3,0,2.2-1,3-1.8c0-0.1,1.9-2.4,2.6-3.2c-0.1-0.1-0.3-0.1-0.4-0.2c-1.2-0.7-2.1-1.8-2.8-3c-1.2-2.2-1.1-4.4-0.9-5.5l0.1-1.7
		c-0.4-2.7-0.3-5.3,0.2-7.9c0.4-2.2,0.9-4.4,2.7-6.7c0.6-0.8,1.3-1.5,2-2c-1.6-0.7-3.3-1.1-5-1.2C14.3,2.6,13.9,2.6,13.5,2.5z
		 M26.1,3.4c-0.5,0-1,0-1.5,0.1c-2,0.4-3.9,1.5-5.4,3.4c-1.5,1.9-1.9,3.7-2.3,5.8c-0.2,0.8-0.2,1.5-0.3,2.3c0.6-0.5,1.4-1.1,2.6-1.4
		c0.7-0.2,2.5-0.8,4,0.1c0.5,0.3,1.2,0.9,1.9,2.6c1.5,4.2,0,8.5-0.2,8.9c-0.1,0.4-0.3,0.7-0.4,0.9c-0.2,0.5-0.4,0.9-0.6,1.7
		c-0.1,0.7-0.2,1.3-0.2,2c0.3,0,0.6,0.1,0.9,0.3c0.5,0.5,0.6,1.2,0.7,1.5c0.2,1.6,0.2,3.6,0.2,5.6c0,1.6,0,3.1,0.1,4.1
		c0.2,2.3,0.9,3.9,1.9,4.7c0.7,0.6,1.6,0.6,2.1,0.7h0.2c1.5,0,3.9-1,4.8-2.4c0.5-0.8,0.7-1.5,0.9-2.5c0.1-0.6,0.1-0.9,0.2-1.5
		c0-0.3,0.1-0.8,0.1-1.4c0-0.5,0.1-1.1,0.2-1.8c0.1-1.7,0.4-3.7,0.5-4.8c0.1-1.3,0.7-2.4,1.2-3.1c-0.7-0.1-1.4-0.7-1.8-1.7
		c-0.6-1.1-0.7-1.4-0.8-1.9c-0.1-0.4-0.3-0.9-1-2.4c-1.5-3.4-1.7-4.4-1.7-5.2c-0.1-1.1-0.2-2.6,1-3.6c1.8-1.6,4.1-1.5,5.3-1.1v-0.2
		c-0.2-0.8-0.6-1.4-0.9-1.8c-1.5-2.3-2.3-3.5-3.7-4.7c-0.6-0.5-2.1-1.7-4.3-2.5C28.8,3.8,27.6,3.4,26.1,3.4z M37.2,15.1
		c-0.7-0.1-1.7,0.1-2.5,0.8c-0.4,0.4-0.4,1.2-0.3,1.9c0,0.5,0.1,1.2,1.6,4.6c0.7,1.6,0.9,2.1,1,2.5c0.1,0.4,0.2,0.6,0.8,1.7
		c0.1,0.2,0.2,0.4,0.4,0.6c0.2-0.3,0.3-0.8,0.4-1.6l0.1-0.3c0.2-0.9,0.1-1.6,0.1-2.8c0-0.6-0.1-1-0.1-1.3c-0.1-0.5-0.1-0.9-0.1-1.5
		c-0.2-0.3-0.2-0.4-0.1-0.6c0-0.2,0.1-0.5,0.2-1.1c0.1-0.8,0.2-1.5,0.2-2.3c-0.2-0.1-0.3-0.2-0.5-0.3C38.4,15.4,37.9,15.2,37.2,15.1
		z M21.5,15.5c-0.6-0.1-1.4,0.1-1.8,0.3c-1.1,0.3-1.8,1-2.3,1.4c-0.3,0.3-0.6,0.6-0.9,1c0,0.7,0.1,1.4,0.2,2.1v0.1l-0.2,2
		c-0.2,0.9-0.3,2.6,0.7,4.3c0.5,1,1.2,1.8,2.1,2.3c0.6,0.4,1.4,0.7,2.3,0.9c0-0.7,0.1-1.5,0.2-2.2c0.2-1,0.4-1.5,0.7-2.1
		c0.1-0.3,0.2-0.5,0.4-0.8c0.1-0.3,1.5-4.1,0.2-7.6c-0.3-0.8-0.6-1.3-1-1.5C21.9,15.6,21.7,15.5,21.5,15.5z M36.2,16.1
		c0.3,0,0.5,0,0.6,0.1c0.3,0.2-0.1,0.7-0.2,0.8c-0.1,0.1-0.3,0.3-0.6,0.4c-0.4,0.1-0.7-0.2-0.8-0.2c-0.1-0.1-0.4-0.4-0.3-0.7
		c0.1-0.2,0.2-0.2,0.6-0.3C35.6,16.1,35.9,16.1,36.2,16.1z M21.2,16.9c0.3,0,0.6,0.1,0.8,0.2c0.3,0.1,0.6,0.2,0.6,0.4
		c0.1,0.3-0.2,0.5-0.3,0.6c-0.3,0.3-0.8,0.3-0.8,0.3c-0.5,0-0.8-0.3-1-0.6c-0.1-0.1-0.2-0.3-0.1-0.5c0.1-0.2,0.3-0.3,0.4-0.3
		C20.9,16.9,21,16.9,21.2,16.9z M39.5,30c-0.5,0.7-1.2,1.6-1.3,2.8c0,0.2,0,0.3-0.1,0.5c0.8,0.2,1.5,0.2,2.2,0.1
		c1.6-0.2,2.7-1,2.9-1.2c0.7-0.5,1.6-1.5,1.4-1.9c-0.1-0.2-0.4-0.1-2,0c-0.4,0-1.6,0.3-2.4,0.1H40C39.8,30.3,39.6,30.2,39.5,30z
		 M22.1,32c-0.2,0.3-0.5,0.5-0.7,0.7c-0.8,0.5-1.8,0.9-2.8,1.1c-0.9,0.3-1.4,0.3-1.4,0.6c-0.1,0.4,0.9,0.9,1.4,1.1
		c1.7,0.7,3.4,0.3,3.7,0.2c0.2-0.1,0.7-0.3,1.2-0.6c0-1.1-0.1-2.1-0.2-2.9v-0.1h-0.1C22.9,32.1,22.5,32.1,22.1,32z"/>
</g>
</svg>
