<?xml version="1.0" encoding="utf-8"?>
<!-- Generator: Adobe Illustrator 24.0.2, SVG Export Plug-In . SVG Version: 6.00 Build 0)  -->
<svg version="1.1" id="Layer_1" xmlns="http://www.w3.org/2000/svg" xmlns:xlink="http://www.w3.org/1999/xlink" x="0px" y="0px"
	 viewBox="0 0 50 50" style="enable-background:new 0 0 50 50;" xml:space="preserve">
<style type="text/css">
	.st0{fill:#41228E;}
</style>
<g id="surface12321793">
	<path class="st0" d="M46.8,22.1L27.9,3.2C27.1,2.4,26.1,2,25,2s-2.1,0.4-2.9,1.2l-3.7,3.7l4.6,4.6c1.5-0.9,3.5-0.7,4.9,0.6
		s1.5,3.3,0.6,4.8l4.5,4.5c1.5-0.9,3.5-0.7,4.9,0.6c1.6,1.6,1.6,4.1,0,5.7s-4.1,1.6-5.7,0c-1.3-1.3-1.5-3.3-0.6-4.9L27,18.4
		c-0.3,0.2-0.7,0.3-1,0.4v12.3c1.7,0.4,3,2,3,3.9c0,2.2-1.8,4-4,4s-4-1.8-4-4c0-1.9,1.3-3.4,3-3.9V18.9c-0.7-0.2-1.3-0.5-1.8-1
		c-1.3-1.3-1.5-3.3-0.6-4.8l-4.6-4.6L3.2,22.1c-1.6,1.6-1.6,4.2,0,5.8l18.9,18.9c0.8,0.8,1.9,1.2,2.9,1.2s2.1-0.4,2.9-1.2l18.9-18.9
		C48.4,26.3,48.4,23.7,46.8,22.1z"/>
</g>
</svg>
