<?xml version="1.0" encoding="utf-8"?>
<!-- Generator: Adobe Illustrator 24.0.2, SVG Export Plug-In . SVG Version: 6.00 Build 0)  -->
<svg version="1.1" id="Layer_1" xmlns="http://www.w3.org/2000/svg" xmlns:xlink="http://www.w3.org/1999/xlink" x="0px" y="0px"
	 viewBox="0 0 2500 2438" style="enable-background:new 0 0 2500 2438;" xml:space="preserve">
<style type="text/css">
	.st0{fill:#41228E;}
	.st1{fill:#9082F6;}
</style>
<path class="st0" d="M442.7,0.2h1614.6C2302.1,0.2,2500,198.2,2500,443V1995c0,244.8-197.9,442.7-442.7,442.7H442.7
	C197.9,2437.8,0,2239.8,0,1995V443C0,198.2,197.9,0.2,442.7,0.2z"/>
<g>
	<path class="st1" d="M908.3,637.8v1072.9c0,11.5-5.2,16.7-14.6,16.7H689.6c-9.4,0-13.5-5.2-13.5-16.7V637.8
		c0-9.4,5.2-13.5,14.6-13.5h203.1c6.2-1,12.5,3.1,13.5,10.4C908.3,635.7,908.3,636.7,908.3,637.8L908.3,637.8z M1510.4,1739.8
		c-77.1,1-154.2-14.6-224-46.9c-65.6-30.2-119.8-80.2-157.3-141.7c-38.5-63.5-57.3-142.7-57.3-237.5c-1-77.1,18.8-153.1,57.3-219.8
		c39.6-67.7,96.9-124,165.6-161.5c72.9-40.6,160.4-60.4,263.5-60.4c5.2,0,12.5,0,21.9,1s19.8,1,32.3,2.1V546.1
		c0-7.3,3.1-11.5,10.4-11.5h211.5c5.2-1,9.4,3.1,10.4,7.3v993.8c0,18.8,1,39.6,2.1,62.5c2.1,21.9,3.1,42.7,4.2,60.4
		c0,7.3-3.1,13.5-10.4,16.7c-54.2,22.9-111.5,39.6-169.8,50C1618.8,1734.6,1564.6,1739.8,1510.4,1739.8L1510.4,1739.8z
		 M1612.5,1531.5v-458.3c-9.4-2.1-18.8-4.2-28.1-5.2c-11.5-1-22.9-2.1-34.4-2.1c-40.6,0-81.3,8.3-117.7,27.1
		c-35.4,17.7-65.6,43.8-88.5,77.1s-34.4,78.1-34.4,132.3c-1,36.5,5.2,72.9,17.7,107.3c10.4,28.1,26,53.1,46.9,74
		c19.8,18.8,43.8,33.3,70.8,41.7c28.1,9.4,57.3,13.5,86.5,13.5c15.6,0,30.2-1,43.8-2.1C1588.5,1537.8,1601,1535.7,1612.5,1531.5
		L1612.5,1531.5z"/>
</g>
</svg>
