<?xml version="1.0" encoding="utf-8"?>
<!-- Generator: Adobe Illustrator 24.0.2, SVG Export Plug-In . SVG Version: 6.00 Build 0)  -->
<svg version="1.1" id="Layer_1" xmlns="http://www.w3.org/2000/svg" xmlns:xlink="http://www.w3.org/1999/xlink" x="0px" y="0px"
	 viewBox="0 0 24 24" style="enable-background:new 0 0 24 24;" xml:space="preserve">
<style type="text/css">
	.st0{fill:#41228E;}
</style>
<title>Insomnia icon</title>
<path class="st0" d="M12,0C5.4,0,0,5.4,0,12s5.4,12,12,12s12-5.4,12-12S18.6,0,12,0z M12,2.5c5.3,0,9.5,4.3,9.5,9.5
	s-4.3,9.5-9.5,9.5S2.5,17.3,2.5,12c0-0.9,0.1-1.7,0.3-2.6c0.9,1.3,2.4,2.1,3.9,2.1c2.6,0,4.8-2.1,4.8-4.8c0-1.6-0.8-3-2.1-3.9
	C10.3,2.6,11.1,2.5,12,2.5z"/>
</svg>
