<?xml version="1.0" encoding="utf-8"?>
<!-- Generator: Adobe Illustrator 24.0.2, SVG Export Plug-In . SVG Version: 6.00 Build 0)  -->
<svg version="1.1"
	 id="svg18" inkscape:version="0.92.4 (5da689c313, 2019-01-14)" sodipodi:docname="netlify-icon.svg" xmlns:cc="http://creativecommons.org/ns#" xmlns:dc="http://purl.org/dc/elements/1.1/" xmlns:inkscape="http://www.inkscape.org/namespaces/inkscape" xmlns:rdf="http://www.w3.org/1999/02/22-rdf-syntax-ns#" xmlns:sodipodi="http://sodipodi.sourceforge.net/DTD/sodipodi-0.dtd" xmlns:svg="http://www.w3.org/2000/svg"
	 xmlns="http://www.w3.org/2000/svg" xmlns:xlink="http://www.w3.org/1999/xlink" x="0px" y="0px" viewBox="0 0 64 64"
	 style="enable-background:new 0 0 64 64;" xml:space="preserve">
<style type="text/css">
	.st0{fill:url(#path14_1_);}
</style>
<sodipodi:namedview  bordercolor="#666666" borderopacity="1" gridtolerance="10" guidetolerance="10" id="namedview20" inkscape:current-layer="svg18" inkscape:cx="88.415333" inkscape:cy="45.145184" inkscape:pageopacity="0" inkscape:pageshadow="2" inkscape:window-height="1001" inkscape:window-maximized="1" inkscape:window-width="1920" inkscape:window-x="-9" inkscape:window-y="-9" inkscape:zoom="4.3203661" objecttolerance="10" pagecolor="#ffffff" showgrid="false">
	</sodipodi:namedview>
<title  id="title2">Netlify</title>
<desc  id="desc4">Created with Sketch.</desc>
<radialGradient id="path14_1_" cx="666.2344" cy="-493.7117" r="104.6513" gradientTransform="matrix(0.6118 0 0 -0.6133 -375.57 -334.8394)" gradientUnits="userSpaceOnUse">
	<stop  offset="0" style="stop-color:#41228E"/>
	<stop  offset="0.8463" style="stop-color:#41228E"/>
	<stop  offset="1" style="stop-color:#41228E"/>
</radialGradient>
<path id="path14" inkscape:connector-curvature="0" class="st0" d="M46.3,22.2c-0.4-0.1,1.3-7.9,1.2-8.1l6,6.1
	c-0.1,0-6.2,2.7-6.4,2.7C47,22.6,46.7,22.4,46.3,22.2L46.3,22.2z M55.1,21.7c1.6,1.9,8.3,7.5,8.8,9.6c-0.2-0.1-15.5-6.5-15.6-6.7
	C48.4,24.4,54.9,21.9,55.1,21.7z M63.7,33.4c-0.9,1.5-8,8.1-9.4,9.7c-0.1,0-9.4-2-9.5-2c-0.4-0.9-0.5-1.4-1.3-2.3
	c0,0,1.8-10.9,1.8-10.9c0-0.1,0-0.2,0.1-0.2c0.9,0,1.5-0.9,2.1-1.1C47.6,26.6,63.7,33.4,63.7,33.4z M52.6,44.8l-12,12
	c0.1-0.2,1.9-12.8,2.2-12.8c0.6-0.2,0.9-0.7,1.4-1C44.2,43,52.6,44.8,52.6,44.8L52.6,44.8z M38.1,59.3l-1.4,1.4
	c0.2-0.4-16.3-22.1-14.6-22.2c0,0,16.5,3.4,16.5,3.4c0.5,0.7,0.9,1.8,1.9,2.1C40.4,45.4,38.6,56.2,38.1,59.3L38.1,59.3z M35.3,62.1
	c-2.6,2.8-4.4,2.4-7-0.5c0,0-15-15-15-15l3.9-6.1c0.9,0,2.1,0.2,3.1-0.2C20.3,40.3,35.2,62.1,35.3,62.1L35.3,62.1z M11.8,45.1
	l-3.4-3.4C16.3,38.5,17.6,36.4,11.8,45.1L11.8,45.1z M6.8,40.2c-1.1-1.2-5.1-5-6-6.1c0.1,0.2,14.1,2.5,13.3,3
	C14.1,37.1,6.9,40.1,6.8,40.2z M0.1,31.8c0.1-2.5,6.4-7.1,8-9.2C21.2,40.5,15.6,34.1,0.1,31.8L0.1,31.8z M9.5,21.1l7.5-7.5
	c1.1,0.6,8.2,3.2,9.5,4.2c-0.5,1.3,0.6,2.3,0.8,3.3c0,0-7.6,11.8-7.6,11.8c-0.3,0.2-0.8-0.1-1.1,0c-0.3-0.1-0.8,0.2-1,0
	C17.6,32.8,9.5,21.1,9.5,21.1L9.5,21.1z M18.5,12.1c1.9-1.6,10.5-11.2,12.5-12c2.7-1,4.8,2.6,6.9,4.4c-0.2,0.1-6.8,11-7.1,10.8
	c-1.2-0.5-2.4,0.1-3.4,0.6C26.5,15.5,19.5,12.5,18.5,12.1L18.5,12.1z M39.4,6l6.4,6.4c-2.2,14.2-0.4,10.5-12.4,6
	c-0.3-0.5-0.4-1.3-0.7-1.9C32.6,16.5,39.4,6,39.4,6z M32.8,20.4l9.1,3.9c0.3,0.1,0,0.4,0.1,0.6c0,0.1,0.1,0.4-0.1,0.4
	c-1.4,0.4-20.8,9.3-20.3,8.4c0,0,7.5-11.6,7.5-11.6c0.1-0.3,0.5,0,0.7-0.1C31.1,22,32,21,32.8,20.4L32.8,20.4z M22.4,35.7
	c0.3,0.2,21.1-9.8,21-8.3c0,0-1.8,10.8-1.8,10.8c-0.7,0.5-2,0.6-2.5,1.7C39,40,22.8,36.5,22.7,36.5C22.7,36.5,22.4,35.7,22.4,35.7
	L22.4,35.7z"/>
</svg>
