<?xml version="1.0" encoding="utf-8"?>
<!-- Generator: Adobe Illustrator 24.0.2, SVG Export Plug-In . SVG Version: 6.00 Build 0)  -->
<svg version="1.1" id="Layer_1" xmlns="http://www.w3.org/2000/svg" xmlns:xlink="http://www.w3.org/1999/xlink" x="0px" y="0px"
	 viewBox="0 0 2500 2500" style="enable-background:new 0 0 2500 2500;" xml:space="preserve">
<style type="text/css">
	.st0{fill:url(#SVGID_1_);}
	.st1{fill:#FFFFFF;}
</style>
<linearGradient id="SVGID_1_" gradientUnits="userSpaceOnUse" x1="4407.9736" y1="1250" x2="4400.7422" y2="1250">
	<stop  offset="0.3108" style="stop-color:#41228E"/>
	<stop  offset="1" style="stop-color:#412A85"/>
</linearGradient>
<path class="st0" d="M244.1,0h2011.7C2390.7,0,2500,109.3,2500,244.1v2011.7c0,134.8-109.3,244.1-244.1,244.1H244.1
	C109.3,2500,0,2390.7,0,2255.9V244.1C0,109.3,109.3,0,244.1,0z"/>
<path class="st1" d="M1529.7,325h528.1c64.7,0,117.2,52.5,117.2,117.2v859.4c0,64.7-52.5,117.2-117.2,117.2h-528.1
	c-64.7,0-117.2-52.5-117.2-117.2V442.2C1412.5,377.5,1465,325,1529.7,325z"/>
<path class="st1" d="M442.2,325h528.1c64.7,0,117.2,52.5,117.2,117.2v1484.4c0,64.7-52.5,117.2-117.2,117.2H442.2
	c-64.7,0-117.2-52.5-117.2-117.2V442.2C325,377.5,377.5,325,442.2,325z"/>
</svg>
