<?xml version="1.0" encoding="utf-8"?>
<!-- Generator: Adobe Illustrator 24.0.2, SVG Export Plug-In . SVG Version: 6.00 Build 0)  -->
<svg version="1.1" id="Layer_1" xmlns="http://www.w3.org/2000/svg" xmlns:xlink="http://www.w3.org/1999/xlink" x="0px" y="0px"
	 viewBox="0 0 24 24" style="enable-background:new 0 0 24 24;" xml:space="preserve">
<style type="text/css">
	.st0{fill-rule:evenodd;clip-rule:evenodd;fill:#41228E;}
</style>
<path class="st0" d="M21.3,4.1l-4.1-2C17,2,16.9,2,16.7,2l0,0h0c-0.3,0-0.6,0.1-0.9,0.4L7.9,9.6L4.4,6.9C4.1,6.7,3.7,6.7,3.4,7
	L2.3,8C2.1,8.2,2,8.4,2,8.6v0c0,0.2,0.1,0.5,0.3,0.6l3,2.7l-3,2.7c-0.3,0.3-0.4,0.8-0.1,1.2c0,0,0,0,0.1,0.1l1.1,1
	c0.3,0.3,0.7,0.3,1.1,0l3.4-2.6l7.9,7.2c0.2,0.2,0.5,0.3,0.8,0.4l0,0c0,0,0,0,0.1,0c0,0,0,0,0.1,0l0,0c0.2,0,0.3,0,0.5-0.1l4.1-2
	c0.4-0.2,0.7-0.6,0.7-1.1V5.2C22,4.7,21.7,4.3,21.3,4.1z M17,16.5l-6-4.5l6-4.5V16.5z"/>
</svg>
