<?xml version="1.0" encoding="utf-8"?>
<!-- Generator: Adobe Illustrator 24.0.2, SVG Export Plug-In . SVG Version: 6.00 Build 0)  -->
<svg version="1.1" id="Layer_1" xmlns="http://www.w3.org/2000/svg" xmlns:xlink="http://www.w3.org/1999/xlink" x="0px" y="0px"
	 viewBox="0 0 2500 2438" style="enable-background:new 0 0 2500 2438;" xml:space="preserve">
<style type="text/css">
	.st0{fill:#41228E;}
	.st1{fill:#9082F6;}
</style>
<path class="st0" d="M442.7,0.2h1614.6c244.8,0,442.7,198,442.7,442.8v1552c0,244.8-197.9,442.7-442.7,442.7H442.7
	C197.9,2437.8,0,2239.8,0,1995V443C0,198.2,197.9,0.2,442.7,0.2z"/>
<g>
	<path class="st1" d="M1314.6,640.9l-312.5,515.6l333.3,546.9c2.1,4.2,3.1,8.3,2.1,12.5s-5.2,1-11.5,2.1h-238.5
		c-16.7,0-28.1-1-35.4-11.5c-21.9-43.7-44.8-86.5-66.7-130.2c-21.9-42.7-45.8-86.5-70.8-131.3s-50-89.6-75-135.4h-2.1
		c-21.9,44.8-45.8,89.6-69.8,134.4s-47.9,89.6-70.8,133.3c-24,43.8-47.9,88.5-71.9,131.3c-4.2,10.4-12.5,11.5-24,11.5H371.9
		c-4.2,0-7.3,2.1-7.3-3.1c-1-4.2,0-8.3,2.1-11.5l324-531.3L375,639.8c-3.1-4.2-4.2-8.3-2.1-10.4c2.1-3.1,6.2-4.2,10.4-4.2h236.5
		c5.2,0,10.4,1,14.6,2.1c4.2,2.1,7.3,5.2,10.4,9.4c19.8,44.8,42.7,89.6,66.7,134.4c25,44.8,49,88.5,75,132.3
		c25,43.7,47.9,87.5,69.8,132.3h2.1c21.9-45.8,44.8-90.6,67.7-134.4s46.9-87.5,70.8-131.2c24-43.7,46.9-88.5,69.8-131.2
		c1-4.2,3.1-8.3,6.2-10.4c4.2-2.1,8.3-3.1,13.5-2.1h219.8c5.2-1,10.4,2.1,11.5,7.3C1318.8,634.6,1316.7,638.8,1314.6,640.9
		L1314.6,640.9z M1795.8,1739.8c-77.1,1-154.2-14.6-224-46.9c-65.6-30.2-119.8-80.2-157.3-141.7c-38.5-63.5-57.3-142.7-57.3-237.5
		c-1-77.1,18.8-153.1,57.3-219.8c39.6-67.7,96.9-124,165.6-161.5c72.9-40.6,160.4-60.4,263.5-60.4c5.2,0,12.5,0,21.9,1
		s19.8,1,32.3,2.1v-329c0-7.3,3.1-11.5,10.4-11.5h211.5c5.2-1,9.4,3.1,10.4,7.3v993.8c0,18.8,1,39.6,2.1,62.5
		c2.1,21.9,3.1,42.7,4.2,60.4c0,7.3-3.1,13.5-10.4,16.7c-54.2,22.9-111.5,39.6-169.8,50C1903.1,1734.6,1850,1739.8,1795.8,1739.8
		L1795.8,1739.8z M1897.9,1531.5v-458.3c-9.4-2.1-18.8-4.2-28.1-5.2c-11.5-1-22.9-2.1-34.4-2.1c-40.6,0-81.3,8.3-117.7,27.1
		c-35.4,17.7-65.6,43.8-88.5,77.1s-34.4,78.1-34.4,132.3c-1,36.5,5.2,72.9,17.7,107.3c10.4,28.1,26,53.1,46.9,74
		c19.8,18.8,43.8,33.3,70.8,41.7c28.1,9.4,57.3,13.5,86.5,13.5c15.6,0,30.2-1,43.8-2.1C1874,1537.8,1885.4,1535.7,1897.9,1531.5
		L1897.9,1531.5z"/>
</g>
</svg>
